<svg width="58" height="58" viewBox="0 0 58 58" fill="none" xmlns="http://www.w3.org/2000/svg">
<path d="M3 26.1111C3 15.2171 3 9.76867 6.38578 6.38578C9.77156 3.00289 15.2171 3 26.1111 3H31.8889C42.7829 3 48.2313 3 51.6142 6.38578C54.9971 9.77156 55 15.2171 55 26.1111V31.8889C55 42.7829 55 48.2313 51.6142 51.6142C48.2284 54.9971 42.7829 55 31.8889 55H26.1111C15.2171 55 9.76867 55 6.38578 51.6142C3.00289 48.2284 3 42.7829 3 31.8889V26.1111Z" stroke="#FFE9D4" stroke-width="5"/>
<path d="M41.9998 20.3334C44.3931 20.3334 46.3332 18.3933 46.3332 16.0001C46.3332 13.6068 44.3931 11.6667 41.9998 11.6667C39.6066 11.6667 37.6665 13.6068 37.6665 16.0001C37.6665 18.3933 39.6066 20.3334 41.9998 20.3334Z" fill="#FFE9D4"/>
<path d="M29.0002 37.6666C33.7866 37.6666 37.6668 33.7864 37.6668 28.9999C37.6668 24.2135 33.7866 20.3333 29.0002 20.3333C24.2137 20.3333 20.3335 24.2135 20.3335 28.9999C20.3335 33.7864 24.2137 37.6666 29.0002 37.6666Z" stroke="#FFE9D4" stroke-width="5"/>
</svg>
