<svg width="59" height="70" viewBox="0 0 59 70" fill="none" xmlns="http://www.w3.org/2000/svg">
<path d="M6.00019 48.4004C6.40019 48.2004 6.70019 48.1004 7.10019 48.1004C7.60019 48.1004 8.20019 48.5004 8.60019 49.1004C14.6002 58.5004 22.6002 64.6004 31.7002 64.6004C38.3002 64.6004 43.6002 61.4004 43.6002 54.1004C43.6002 45.9004 34.0002 42.6004 27.3002 40.7004C13.8002 36.8004 0.500188 32.4004 0.500186 19.7004C0.500185 8.70039 9.90018 0.900395 24.6002 0.900394C29.9002 0.900393 34.5002 2.40039 38.8002 4.50039C39.3002 4.70039 39.7002 4.80039 40.1002 4.80039C40.6002 4.80039 40.9002 4.60039 40.9002 3.90039C40.9002 3.70039 40.8002 3.30039 40.7002 3.00039C40.5002 2.50039 40.4002 2.30039 40.4002 1.90039C40.4002 1.20039 40.9002 0.900392 41.9002 0.900392L44.8002 0.900392C45.9002 0.900392 46.5002 1.30039 47.0002 2.20039L57.9002 23.0004C58.1002 23.3004 58.2002 23.7004 58.2002 24.0004C58.2002 24.6004 57.9002 25.2004 57.3002 25.5004L55.5002 26.5004C55.1002 26.7004 54.8002 26.9004 54.4002 26.9004C53.8002 26.9004 53.4002 26.5004 52.9002 25.8004C45.0002 13.7004 35.9002 5.70039 23.5002 5.70039C14.7002 5.70039 9.50019 10.5004 9.50019 17.8004C9.50019 26.5004 17.3002 28.9004 30.0002 32.6004C41.5002 35.9004 52.8002 40.9004 52.8002 52.9004C52.8002 63.7004 43.2002 69.1004 32.0002 69.1004C25.5002 69.1004 20.8002 66.9004 18.4002 65.5004C17.3002 64.9004 16.7002 64.7004 16.3002 64.7004C16.0002 64.7004 15.9002 64.8004 15.9002 65.2004C15.9002 65.8004 16.3002 66.9004 16.3002 68.1004C16.3002 69.0004 15.8002 69.4004 14.7002 69.4004L13.1002 69.4004C11.9002 69.4004 11.3002 69.0004 10.9002 67.9004L4.20019 51.6004C4.00019 51.1004 3.90019 50.7004 3.90019 50.3004C3.90019 49.8004 4.00019 49.4004 4.80019 49.0004L6.00019 48.4004Z" fill="#FFB900"/>
</svg>
